# xmcd
#
# Track frame offsets:
#	183
#	16000
#	30278
#	45675
#	59528
#	72605
#	87613
#	102045
#	120708
#	130798
#	144883
#	160938
#	174560
#	189195
#	203255
#	218465
#	236010
#	249295
#	265265
#	279433
#
# Disc length: 3901 seconds
#
# Revision: 1
# Processed by: cddbd v1.5.1PL0 Copyright (c) Steve Scherf et al.
# Submitted via: EasyCDDAExtractor 8.2.1.1
#
DISCID=080f3b14
DTITLE=Ann Williamson - Inspirations
DYEAR=1991
DGENRE=Country
TTITLE0=Morning Has Broken
TTITLE1=One Day at a Time
TTITLE2=Count Your Blessings
TTITLE3=It Is No Secret
TTITLE4=By Cool Siloam's Shady Rill
TTITLE5=The Family Bible
TTITLE6=Why Me Lord
TTITLE7=How Great Thou Art
TTITLE8=In The Garden
TTITLE9=The Lord Is My Shepherd
TTITLE10=Amazing Grace
TTITLE11=The Old Rugged Cross
TTITLE12=Safe in the Arms of Jesus
TTITLE13=Whispering Hope
TTITLE14=Precious Memories
TTITLE15=Hey Lord It's Me
TTITLE16=Tell Me The Old Old Story
TTITLE17=O Love That Will Not Let Me Go
TTITLE18=O Perfect Love
TTITLE19=Abide With Me
EXTD=TCD 2538\n20 Songs of Joy and Love
EXTT0=
EXTT1=
EXTT2=
EXTT3=
EXTT4=
EXTT5=
EXTT6=
EXTT7=
EXTT8=
EXTT9=
EXTT10=
EXTT11=
EXTT12=
EXTT13=
EXTT14=
EXTT15=
EXTT16=
EXTT17=
EXTT18=
EXTT19=
PLAYORDER=
